# xmcd CD database file
#
# Track frame offsets:
#	150
#	13425
#	27009
#	41753
#	53688
#	67653
#	80432
#	93333
#	108901
#	121521
#	135292
#	150633
#	162968
#	175220
#	187764
#	197839
#	207410
#	216279
#	229200
#	242659
#
# Disc length: 3402 seconds
#
# Revision: 0
# Processed by: cddbd v1.5.1PL0 Copyright (c) Steve Scherf et al.
# Submitted via: CDex 1.51
#
DISCID=fe0d4814
DTITLE=Howard McGhee - 1946 - 1948
DYEAR=1944
DGENRE=Jazz
TTITLE0=Dialated Pupils
TTITLE1=Midnight At Minton's
TTITLE2=Up In Dodo's Room
TTITLE3=High Wind In Hollywood (52nd Street Theme)
TTITLE4=Dorothy
TTITLE5=Night Mist
TTITLE6=Coolie-Rini
TTITLE7=Night Music
TTITLE8=Turnip Blood
TTITLE9=Surrender
TTITLE10=Sleepwalker Boogie
TTITLE11=Stoptime Blues
TTITLE12=You
TTITLE13=Hot And Mellow (Yardbird Suite)
TTITLE14=Messin' With Fire (Donna Lee)
TTITLE15=Merry Lee
TTITLE16=Short Life
TTITLE17=Talk Of The Town
TTITLE18=Bass C Jam (Stompin' At The Savoy)
TTITLE19=Down Home
EXTD=YEAR: 1944
EXTT0=
EXTT1=
EXTT2=
EXTT3=
EXTT4=
EXTT5=
EXTT6=
EXTT7=
EXTT8=
EXTT9=
EXTT10=
EXTT11=
EXTT12=
EXTT13=
EXTT14=
EXTT15=
EXTT16=
EXTT17=
EXTT18=
EXTT19=
PLAYORDER=
